<?xml version="1.0" encoding="UTF-8" standalone="no"?>
<!-- Created with Inkscape (http://www.inkscape.org/) -->

<svg
   version="1.1"
   id="svg1"
   width="206.10864"
   height="187.48001"
   viewBox="0 0 206.10864 187.48001"
   xml:space="preserve"
   xmlns="http://www.w3.org/2000/svg"
   xmlns:svg="http://www.w3.org/2000/svg"><defs
     id="defs1" /><g
     id="g1"
     transform="translate(-1353.7595,-260.42389)"><path
       id="path1"
       style="display:inline;fill:#29284a;stroke-width:1.25859"
       d="m 1378.335,260.42389 h 156.9577 c 13.6148,0 24.5755,12.63264 24.5755,28.32432 v 130.83136 c 0,15.69168 -10.9607,28.32432 -24.5755,28.32432 H 1378.335 c -13.6148,0 -24.5755,-12.63264 -24.5755,-28.32432 V 288.74821 c 0,-15.69168 10.9607,-28.32432 24.5755,-28.32432 z" /><g
       id="g196"
       style="display:inline"
       transform="translate(0,12)"><path
         id="path16"
         style="display:inline;fill:#7c78a3;fill-opacity:1;stroke-width:3.03914"
         d="m 1375.9591,284.33496 a 3.0117235,3.0117235 0 0 1 -3.0117,3.01172 3.0117235,3.0117235 0 0 1 -3.0117,-3.01172 3.0117235,3.0117235 0 0 1 3.0117,-3.01172 3.0117235,3.0117235 0 0 1 3.0117,3.01172 z" /><path
         id="use16"
         style="display:inline;fill:#7c78a3;fill-opacity:1;stroke-width:3.03914"
         d="m 1375.9591,284.33496 a 3.0117235,3.0117235 0 0 1 -3.0117,3.01172 3.0117235,3.0117235 0 0 1 -3.0117,-3.01172 3.0117235,3.0117235 0 0 1 3.0117,-3.01172 3.0117235,3.0117235 0 0 1 3.0117,3.01172 z" /><path
         id="use17"
         style="display:inline;fill:#7c78a3;fill-opacity:1;stroke-width:3.03914"
         d="m 1375.9591,290.3584 a 3.0117235,3.0117235 0 0 1 -3.0117,3.01172 3.0117235,3.0117235 0 0 1 -3.0117,-3.01172 3.0117235,3.0117235 0 0 1 3.0117,-3.01173 3.0117235,3.0117235 0 0 1 3.0117,3.01173 z" /><path
         id="use18"
         style="display:inline;fill:#7c78a3;fill-opacity:1;stroke-width:3.03914"
         d="m 1375.9591,296.38187 a 3.0117235,3.0117235 0 0 1 -3.0117,3.01172 3.0117235,3.0117235 0 0 1 -3.0117,-3.01172 3.0117235,3.0117235 0 0 1 3.0117,-3.01173 3.0117235,3.0117235 0 0 1 3.0117,3.01173 z" /><path
         id="use19"
         style="display:inline;fill:#7c78a3;fill-opacity:1;stroke-width:3.03914"
         d="m 1375.9591,302.4053 a 3.0117235,3.0117235 0 0 1 -3.0117,3.01173 3.0117235,3.0117235 0 0 1 -3.0117,-3.01173 3.0117235,3.0117235 0 0 1 3.0117,-3.01172 3.0117235,3.0117235 0 0 1 3.0117,3.01172 z" /><path
         id="use22"
         style="display:inline;fill:#7c78a3;fill-opacity:1;stroke-width:3.03914"
         d="m 1381.9825,284.33496 a 3.0117235,3.0117235 0 0 1 -3.0117,3.01172 3.0117235,3.0117235 0 0 1 -3.0117,-3.01172 3.0117235,3.0117235 0 0 1 3.0117,-3.01172 3.0117235,3.0117235 0 0 1 3.0117,3.01172 z" /><path
         id="use23"
         style="display:inline;fill:#7c78a3;fill-opacity:1;stroke-width:3.03914"
         d="m 1381.9825,290.3584 a 3.0117235,3.0117235 0 0 1 -3.0117,3.01172 3.0117235,3.0117235 0 0 1 -3.0117,-3.01172 3.0117235,3.0117235 0 0 1 3.0117,-3.01173 3.0117235,3.0117235 0 0 1 3.0117,3.01173 z" /><path
         id="use24"
         style="display:inline;fill:#7c78a3;fill-opacity:1;stroke-width:3.03914"
         d="m 1381.9825,296.38187 a 3.0117235,3.0117235 0 0 1 -3.0117,3.01172 3.0117235,3.0117235 0 0 1 -3.0117,-3.01172 3.0117235,3.0117235 0 0 1 3.0117,-3.01173 3.0117235,3.0117235 0 0 1 3.0117,3.01173 z" /><path
         id="use25"
         style="display:inline;fill:#7c78a3;fill-opacity:1;stroke-width:3.03914"
         d="m 1381.9825,302.4053 a 3.0117235,3.0117235 0 0 1 -3.0117,3.01173 3.0117235,3.0117235 0 0 1 -3.0117,-3.01173 3.0117235,3.0117235 0 0 1 3.0117,-3.01172 3.0117235,3.0117235 0 0 1 3.0117,3.01172 z" /><path
         id="use28"
         style="display:inline;fill:#7c78a3;fill-opacity:1;stroke-width:3.03914"
         d="m 1388.006,284.33496 a 3.0117235,3.0117235 0 0 1 -3.0117,3.01172 3.0117235,3.0117235 0 0 1 -3.0118,-3.01172 3.0117235,3.0117235 0 0 1 3.0118,-3.01172 3.0117235,3.0117235 0 0 1 3.0117,3.01172 z" /><path
         id="use29"
         style="display:inline;fill:#7c78a3;fill-opacity:1;stroke-width:3.03914"
         d="m 1388.006,290.3584 a 3.0117235,3.0117235 0 0 1 -3.0117,3.01172 3.0117235,3.0117235 0 0 1 -3.0118,-3.01172 3.0117235,3.0117235 0 0 1 3.0118,-3.01173 3.0117235,3.0117235 0 0 1 3.0117,3.01173 z" /><path
         id="use30"
         style="display:inline;fill:#7c78a3;fill-opacity:1;stroke-width:3.03914"
         d="m 1388.006,296.38187 a 3.0117235,3.0117235 0 0 1 -3.0117,3.01172 3.0117235,3.0117235 0 0 1 -3.0118,-3.01172 3.0117235,3.0117235 0 0 1 3.0118,-3.01173 3.0117235,3.0117235 0 0 1 3.0117,3.01173 z" /><path
         id="use31"
         style="display:inline;fill:#7c78a3;fill-opacity:1;stroke-width:3.03914"
         d="m 1388.006,302.4053 a 3.0117235,3.0117235 0 0 1 -3.0117,3.01173 3.0117235,3.0117235 0 0 1 -3.0118,-3.01173 3.0117235,3.0117235 0 0 1 3.0118,-3.01172 3.0117235,3.0117235 0 0 1 3.0117,3.01172 z" /><path
         id="use34"
         style="display:inline;fill:#7c78a3;fill-opacity:1;stroke-width:3.03914"
         d="m 1394.0294,284.33496 a 3.0117235,3.0117235 0 0 1 -3.0117,3.01172 3.0117235,3.0117235 0 0 1 -3.0117,-3.01172 3.0117235,3.0117235 0 0 1 3.0117,-3.01172 3.0117235,3.0117235 0 0 1 3.0117,3.01172 z" /><path
         id="use35"
         style="display:inline;fill:#7c78a3;fill-opacity:1;stroke-width:3.03914"
         d="m 1394.0294,290.3584 a 3.0117235,3.0117235 0 0 1 -3.0117,3.01172 3.0117235,3.0117235 0 0 1 -3.0117,-3.01172 3.0117235,3.0117235 0 0 1 3.0117,-3.01173 3.0117235,3.0117235 0 0 1 3.0117,3.01173 z" /><path
         id="use36"
         style="display:inline;fill:#7c78a3;fill-opacity:1;stroke-width:3.03914"
         d="m 1394.0294,296.38187 a 3.0117235,3.0117235 0 0 1 -3.0117,3.01172 3.0117235,3.0117235 0 0 1 -3.0117,-3.01172 3.0117235,3.0117235 0 0 1 3.0117,-3.01173 3.0117235,3.0117235 0 0 1 3.0117,3.01173 z" /><path
         id="use37"
         style="display:inline;fill:#7c78a3;fill-opacity:1;stroke-width:3.03914"
         d="m 1394.0294,302.4053 a 3.0117235,3.0117235 0 0 1 -3.0117,3.01173 3.0117235,3.0117235 0 0 1 -3.0117,-3.01173 3.0117235,3.0117235 0 0 1 3.0117,-3.01172 3.0117235,3.0117235 0 0 1 3.0117,3.01172 z" /><path
         id="use40"
         style="display:inline;fill:#7c78a3;fill-opacity:1;stroke-width:3.03914"
         d="m 1400.0529,284.33496 a 3.0117235,3.0117235 0 0 1 -3.0118,3.01172 3.0117235,3.0117235 0 0 1 -3.0117,-3.01172 3.0117235,3.0117235 0 0 1 3.0117,-3.01172 3.0117235,3.0117235 0 0 1 3.0118,3.01172 z" /><path
         id="use41"
         style="display:inline;fill:#7c78a3;fill-opacity:1;stroke-width:3.03914"
         d="m 1400.0529,290.3584 a 3.0117235,3.0117235 0 0 1 -3.0118,3.01172 3.0117235,3.0117235 0 0 1 -3.0117,-3.01172 3.0117235,3.0117235 0 0 1 3.0117,-3.01173 3.0117235,3.0117235 0 0 1 3.0118,3.01173 z" /><path
         id="use42"
         style="display:inline;fill:#7c78a3;fill-opacity:1;stroke-width:3.03914"
         d="m 1400.0529,296.38187 a 3.0117235,3.0117235 0 0 1 -3.0118,3.01172 3.0117235,3.0117235 0 0 1 -3.0117,-3.01172 3.0117235,3.0117235 0 0 1 3.0117,-3.01173 3.0117235,3.0117235 0 0 1 3.0118,3.01173 z" /><path
         id="use43"
         style="display:inline;fill:#7c78a3;fill-opacity:1;stroke-width:3.03914"
         d="m 1400.0529,302.4053 a 3.0117235,3.0117235 0 0 1 -3.0118,3.01173 3.0117235,3.0117235 0 0 1 -3.0117,-3.01173 3.0117235,3.0117235 0 0 1 3.0117,-3.01172 3.0117235,3.0117235 0 0 1 3.0118,3.01172 z" /><path
         id="use46"
         style="display:inline;fill:#7c78a3;fill-opacity:1;stroke-width:3.03914"
         d="m 1406.0763,284.33496 a 3.0117235,3.0117235 0 0 1 -3.0117,3.01172 3.0117235,3.0117235 0 0 1 -3.0117,-3.01172 3.0117235,3.0117235 0 0 1 3.0117,-3.01172 3.0117235,3.0117235 0 0 1 3.0117,3.01172 z" /><path
         id="use47"
         style="display:inline;fill:#7c78a3;fill-opacity:1;stroke-width:3.03914"
         d="m 1406.0763,290.3584 a 3.0117235,3.0117235 0 0 1 -3.0117,3.01172 3.0117235,3.0117235 0 0 1 -3.0117,-3.01172 3.0117235,3.0117235 0 0 1 3.0117,-3.01173 3.0117235,3.0117235 0 0 1 3.0117,3.01173 z" /><path
         id="use48"
         style="display:inline;fill:#7c78a3;fill-opacity:1;stroke-width:3.03914"
         d="m 1406.0763,296.38187 a 3.0117235,3.0117235 0 0 1 -3.0117,3.01172 3.0117235,3.0117235 0 0 1 -3.0117,-3.01172 3.0117235,3.0117235 0 0 1 3.0117,-3.01173 3.0117235,3.0117235 0 0 1 3.0117,3.01173 z" /><path
         id="use49"
         style="display:inline;fill:#7c78a3;fill-opacity:1;stroke-width:3.03914"
         d="m 1406.0763,302.4053 a 3.0117235,3.0117235 0 0 1 -3.0117,3.01173 3.0117235,3.0117235 0 0 1 -3.0117,-3.01173 3.0117235,3.0117235 0 0 1 3.0117,-3.01172 3.0117235,3.0117235 0 0 1 3.0117,3.01172 z" /><path
         id="use52"
         style="display:inline;fill:#7c78a3;fill-opacity:1;stroke-width:3.03914"
         d="m 1412.0997,284.33496 a 3.0117235,3.0117235 0 0 1 -3.0117,3.01172 3.0117235,3.0117235 0 0 1 -3.0117,-3.01172 3.0117235,3.0117235 0 0 1 3.0117,-3.01172 3.0117235,3.0117235 0 0 1 3.0117,3.01172 z" /><path
         id="use53"
         style="display:inline;fill:#7c78a3;fill-opacity:1;stroke-width:3.03914"
         d="m 1412.0997,290.3584 a 3.0117235,3.0117235 0 0 1 -3.0117,3.01172 3.0117235,3.0117235 0 0 1 -3.0117,-3.01172 3.0117235,3.0117235 0 0 1 3.0117,-3.01173 3.0117235,3.0117235 0 0 1 3.0117,3.01173 z" /><path
         id="use54"
         style="display:inline;fill:#7c78a3;fill-opacity:1;stroke-width:3.03914"
         d="m 1412.0997,296.38187 a 3.0117235,3.0117235 0 0 1 -3.0117,3.01172 3.0117235,3.0117235 0 0 1 -3.0117,-3.01172 3.0117235,3.0117235 0 0 1 3.0117,-3.01173 3.0117235,3.0117235 0 0 1 3.0117,3.01173 z" /><path
         id="use55"
         style="display:inline;fill:#7c78a3;fill-opacity:1;stroke-width:3.03914"
         d="m 1412.0997,302.4053 a 3.0117235,3.0117235 0 0 1 -3.0117,3.01173 3.0117235,3.0117235 0 0 1 -3.0117,-3.01173 3.0117235,3.0117235 0 0 1 3.0117,-3.01172 3.0117235,3.0117235 0 0 1 3.0117,3.01172 z" /><path
         id="use58"
         style="display:inline;fill:#7c78a3;fill-opacity:1;stroke-width:3.03914"
         d="m 1418.1233,284.33496 a 3.0117235,3.0117235 0 0 1 -3.0117,3.01172 3.0117235,3.0117235 0 0 1 -3.0118,-3.01172 3.0117235,3.0117235 0 0 1 3.0118,-3.01172 3.0117235,3.0117235 0 0 1 3.0117,3.01172 z" /><path
         id="use59"
         style="display:inline;fill:#7c78a3;fill-opacity:1;stroke-width:3.03914"
         d="m 1418.1233,290.3584 a 3.0117235,3.0117235 0 0 1 -3.0117,3.01172 3.0117235,3.0117235 0 0 1 -3.0118,-3.01172 3.0117235,3.0117235 0 0 1 3.0118,-3.01173 3.0117235,3.0117235 0 0 1 3.0117,3.01173 z" /><path
         id="use60"
         style="display:inline;fill:#7c78a3;fill-opacity:1;stroke-width:3.03914"
         d="m 1418.1233,296.38187 a 3.0117235,3.0117235 0 0 1 -3.0117,3.01172 3.0117235,3.0117235 0 0 1 -3.0118,-3.01172 3.0117235,3.0117235 0 0 1 3.0118,-3.01173 3.0117235,3.0117235 0 0 1 3.0117,3.01173 z" /><path
         id="use61"
         style="display:inline;fill:#7c78a3;fill-opacity:1;stroke-width:3.03914"
         d="m 1418.1233,302.4053 a 3.0117235,3.0117235 0 0 1 -3.0117,3.01173 3.0117235,3.0117235 0 0 1 -3.0118,-3.01173 3.0117235,3.0117235 0 0 1 3.0118,-3.01172 3.0117235,3.0117235 0 0 1 3.0117,3.01172 z" /><path
         id="use64"
         style="display:inline;fill:#7c78a3;fill-opacity:1;stroke-width:3.03914"
         d="m 1424.1467,284.33496 a 3.0117235,3.0117235 0 0 1 -3.0117,3.01172 3.0117235,3.0117235 0 0 1 -3.0117,-3.01172 3.0117235,3.0117235 0 0 1 3.0117,-3.01172 3.0117235,3.0117235 0 0 1 3.0117,3.01172 z" /><path
         id="use65"
         style="display:inline;fill:#7c78a3;fill-opacity:1;stroke-width:3.03914"
         d="m 1424.1467,290.3584 a 3.0117235,3.0117235 0 0 1 -3.0117,3.01172 3.0117235,3.0117235 0 0 1 -3.0117,-3.01172 3.0117235,3.0117235 0 0 1 3.0117,-3.01173 3.0117235,3.0117235 0 0 1 3.0117,3.01173 z" /><path
         id="use66"
         style="display:inline;fill:#7c78a3;fill-opacity:1;stroke-width:3.03914"
         d="m 1424.1467,296.38187 a 3.0117235,3.0117235 0 0 1 -3.0117,3.01172 3.0117235,3.0117235 0 0 1 -3.0117,-3.01172 3.0117235,3.0117235 0 0 1 3.0117,-3.01173 3.0117235,3.0117235 0 0 1 3.0117,3.01173 z" /><path
         id="use67"
         style="display:inline;fill:#7c78a3;fill-opacity:1;stroke-width:3.03914"
         d="m 1424.1467,302.4053 a 3.0117235,3.0117235 0 0 1 -3.0117,3.01173 3.0117235,3.0117235 0 0 1 -3.0117,-3.01173 3.0117235,3.0117235 0 0 1 3.0117,-3.01172 3.0117235,3.0117235 0 0 1 3.0117,3.01172 z" /><path
         id="use70"
         style="display:inline;fill:#7c78a3;fill-opacity:1;stroke-width:3.03914"
         d="m 1430.1702,284.33496 a 3.0117235,3.0117235 0 0 1 -3.0118,3.01172 3.0117235,3.0117235 0 0 1 -3.0117,-3.01172 3.0117235,3.0117235 0 0 1 3.0117,-3.01172 3.0117235,3.0117235 0 0 1 3.0118,3.01172 z" /><path
         id="use71"
         style="display:inline;fill:#7c78a3;fill-opacity:1;stroke-width:3.03914"
         d="m 1430.1702,290.3584 a 3.0117235,3.0117235 0 0 1 -3.0118,3.01172 3.0117235,3.0117235 0 0 1 -3.0117,-3.01172 3.0117235,3.0117235 0 0 1 3.0117,-3.01173 3.0117235,3.0117235 0 0 1 3.0118,3.01173 z" /><path
         id="use72"
         style="display:inline;fill:#7c78a3;fill-opacity:1;stroke-width:3.03914"
         d="m 1430.1702,296.38187 a 3.0117235,3.0117235 0 0 1 -3.0118,3.01172 3.0117235,3.0117235 0 0 1 -3.0117,-3.01172 3.0117235,3.0117235 0 0 1 3.0117,-3.01173 3.0117235,3.0117235 0 0 1 3.0118,3.01173 z" /><path
         id="use73"
         style="display:inline;fill:#7c78a3;fill-opacity:1;stroke-width:3.03914"
         d="m 1430.1702,302.4053 a 3.0117235,3.0117235 0 0 1 -3.0118,3.01173 3.0117235,3.0117235 0 0 1 -3.0117,-3.01173 3.0117235,3.0117235 0 0 1 3.0117,-3.01172 3.0117235,3.0117235 0 0 1 3.0118,3.01172 z" /><path
         id="use76"
         style="display:inline;fill:#7c78a3;fill-opacity:1;stroke-width:3.03914"
         d="m 1436.1936,284.33496 a 3.0117235,3.0117235 0 0 1 -3.0117,3.01172 3.0117235,3.0117235 0 0 1 -3.0117,-3.01172 3.0117235,3.0117235 0 0 1 3.0117,-3.01172 3.0117235,3.0117235 0 0 1 3.0117,3.01172 z" /><path
         id="use77"
         style="display:inline;fill:#7c78a3;fill-opacity:1;stroke-width:3.03914"
         d="m 1436.1936,290.3584 a 3.0117235,3.0117235 0 0 1 -3.0117,3.01172 3.0117235,3.0117235 0 0 1 -3.0117,-3.01172 3.0117235,3.0117235 0 0 1 3.0117,-3.01173 3.0117235,3.0117235 0 0 1 3.0117,3.01173 z" /><path
         id="use78"
         style="display:inline;fill:#7c78a3;fill-opacity:1;stroke-width:3.03914"
         d="m 1436.1936,296.38187 a 3.0117235,3.0117235 0 0 1 -3.0117,3.01172 3.0117235,3.0117235 0 0 1 -3.0117,-3.01172 3.0117235,3.0117235 0 0 1 3.0117,-3.01173 3.0117235,3.0117235 0 0 1 3.0117,3.01173 z" /><path
         id="use79"
         style="display:inline;fill:#7c78a3;fill-opacity:1;stroke-width:3.03914"
         d="m 1436.1936,302.4053 a 3.0117235,3.0117235 0 0 1 -3.0117,3.01173 3.0117235,3.0117235 0 0 1 -3.0117,-3.01173 3.0117235,3.0117235 0 0 1 3.0117,-3.01172 3.0117235,3.0117235 0 0 1 3.0117,3.01172 z" /><path
         id="use82"
         style="display:inline;fill:#7c78a3;fill-opacity:1;stroke-width:3.03914"
         d="m 1442.217,284.33496 a 3.0117235,3.0117235 0 0 1 -3.0117,3.01172 3.0117235,3.0117235 0 0 1 -3.0117,-3.01172 3.0117235,3.0117235 0 0 1 3.0117,-3.01172 3.0117235,3.0117235 0 0 1 3.0117,3.01172 z" /><path
         id="use83"
         style="display:inline;fill:#7c78a3;fill-opacity:1;stroke-width:3.03914"
         d="m 1442.217,290.3584 a 3.0117235,3.0117235 0 0 1 -3.0117,3.01172 3.0117235,3.0117235 0 0 1 -3.0117,-3.01172 3.0117235,3.0117235 0 0 1 3.0117,-3.01173 3.0117235,3.0117235 0 0 1 3.0117,3.01173 z" /><path
         id="use84"
         style="display:inline;fill:#7c78a3;fill-opacity:1;stroke-width:3.03914"
         d="m 1442.217,296.38187 a 3.0117235,3.0117235 0 0 1 -3.0117,3.01172 3.0117235,3.0117235 0 0 1 -3.0117,-3.01172 3.0117235,3.0117235 0 0 1 3.0117,-3.01173 3.0117235,3.0117235 0 0 1 3.0117,3.01173 z" /><path
         id="use85"
         style="display:inline;fill:#7c78a3;fill-opacity:1;stroke-width:3.03914"
         d="m 1442.217,302.4053 a 3.0117235,3.0117235 0 0 1 -3.0117,3.01173 3.0117235,3.0117235 0 0 1 -3.0117,-3.01173 3.0117235,3.0117235 0 0 1 3.0117,-3.01172 3.0117235,3.0117235 0 0 1 3.0117,3.01172 z" /><path
         id="use88"
         style="display:inline;fill:#7c78a3;fill-opacity:1;stroke-width:3.03914"
         d="m 1448.2405,284.33496 a 3.0117235,3.0117235 0 0 1 -3.0117,3.01172 3.0117235,3.0117235 0 0 1 -3.0118,-3.01172 3.0117235,3.0117235 0 0 1 3.0118,-3.01172 3.0117235,3.0117235 0 0 1 3.0117,3.01172 z" /><path
         id="use89"
         style="display:inline;fill:#7c78a3;fill-opacity:1;stroke-width:3.03914"
         d="m 1448.2405,290.3584 a 3.0117235,3.0117235 0 0 1 -3.0117,3.01172 3.0117235,3.0117235 0 0 1 -3.0118,-3.01172 3.0117235,3.0117235 0 0 1 3.0118,-3.01173 3.0117235,3.0117235 0 0 1 3.0117,3.01173 z" /><path
         id="use90"
         style="display:inline;fill:#7c78a3;fill-opacity:1;stroke-width:3.03914"
         d="m 1448.2405,296.38187 a 3.0117235,3.0117235 0 0 1 -3.0117,3.01172 3.0117235,3.0117235 0 0 1 -3.0118,-3.01172 3.0117235,3.0117235 0 0 1 3.0118,-3.01173 3.0117235,3.0117235 0 0 1 3.0117,3.01173 z" /><path
         id="use91"
         style="display:inline;fill:#7c78a3;fill-opacity:1;stroke-width:3.03914"
         d="m 1448.2405,302.4053 a 3.0117235,3.0117235 0 0 1 -3.0117,3.01173 3.0117235,3.0117235 0 0 1 -3.0118,-3.01173 3.0117235,3.0117235 0 0 1 3.0118,-3.01172 3.0117235,3.0117235 0 0 1 3.0117,3.01172 z" /><path
         id="use94"
         style="display:inline;fill:#7c78a3;fill-opacity:1;stroke-width:3.03914"
         d="m 1454.2639,284.33496 a 3.0117235,3.0117235 0 0 1 -3.0117,3.01172 3.0117235,3.0117235 0 0 1 -3.0117,-3.01172 3.0117235,3.0117235 0 0 1 3.0117,-3.01172 3.0117235,3.0117235 0 0 1 3.0117,3.01172 z" /><path
         id="use95"
         style="display:inline;fill:#7c78a3;fill-opacity:1;stroke-width:3.03914"
         d="m 1454.2639,290.3584 a 3.0117235,3.0117235 0 0 1 -3.0117,3.01172 3.0117235,3.0117235 0 0 1 -3.0117,-3.01172 3.0117235,3.0117235 0 0 1 3.0117,-3.01173 3.0117235,3.0117235 0 0 1 3.0117,3.01173 z" /><path
         id="use96"
         style="display:inline;fill:#7c78a3;fill-opacity:1;stroke-width:3.03914"
         d="m 1454.2639,296.38187 a 3.0117235,3.0117235 0 0 1 -3.0117,3.01172 3.0117235,3.0117235 0 0 1 -3.0117,-3.01172 3.0117235,3.0117235 0 0 1 3.0117,-3.01173 3.0117235,3.0117235 0 0 1 3.0117,3.01173 z" /><path
         id="use97"
         style="display:inline;fill:#7c78a3;fill-opacity:1;stroke-width:3.03914"
         d="m 1454.2639,302.4053 a 3.0117235,3.0117235 0 0 1 -3.0117,3.01173 3.0117235,3.0117235 0 0 1 -3.0117,-3.01173 3.0117235,3.0117235 0 0 1 3.0117,-3.01172 3.0117235,3.0117235 0 0 1 3.0117,3.01172 z" /><path
         id="use100"
         style="display:inline;fill:#7c78a3;fill-opacity:1;stroke-width:3.03914"
         d="m 1460.2874,284.33496 a 3.0117235,3.0117235 0 0 1 -3.0118,3.01172 3.0117235,3.0117235 0 0 1 -3.0117,-3.01172 3.0117235,3.0117235 0 0 1 3.0117,-3.01172 3.0117235,3.0117235 0 0 1 3.0118,3.01172 z" /><path
         id="use101"
         style="display:inline;fill:#7c78a3;fill-opacity:1;stroke-width:3.03914"
         d="m 1460.2874,290.3584 a 3.0117235,3.0117235 0 0 1 -3.0118,3.01172 3.0117235,3.0117235 0 0 1 -3.0117,-3.01172 3.0117235,3.0117235 0 0 1 3.0117,-3.01173 3.0117235,3.0117235 0 0 1 3.0118,3.01173 z" /><path
         id="use102"
         style="display:inline;fill:#7c78a3;fill-opacity:1;stroke-width:3.03914"
         d="m 1460.2874,296.38187 a 3.0117235,3.0117235 0 0 1 -3.0118,3.01172 3.0117235,3.0117235 0 0 1 -3.0117,-3.01172 3.0117235,3.0117235 0 0 1 3.0117,-3.01173 3.0117235,3.0117235 0 0 1 3.0118,3.01173 z" /><path
         id="use103"
         style="display:inline;fill:#7c78a3;fill-opacity:1;stroke-width:3.03914"
         d="m 1460.2874,302.4053 a 3.0117235,3.0117235 0 0 1 -3.0118,3.01173 3.0117235,3.0117235 0 0 1 -3.0117,-3.01173 3.0117235,3.0117235 0 0 1 3.0117,-3.01172 3.0117235,3.0117235 0 0 1 3.0118,3.01172 z" /><path
         id="use106"
         style="display:inline;fill:#7c78a3;fill-opacity:1;stroke-width:3.03914"
         d="m 1466.3108,284.33496 a 3.0117235,3.0117235 0 0 1 -3.0117,3.01172 3.0117235,3.0117235 0 0 1 -3.0118,-3.01172 3.0117235,3.0117235 0 0 1 3.0118,-3.01172 3.0117235,3.0117235 0 0 1 3.0117,3.01172 z" /><path
         id="use107"
         style="display:inline;fill:#7c78a3;fill-opacity:1;stroke-width:3.03914"
         d="m 1466.3108,290.3584 a 3.0117235,3.0117235 0 0 1 -3.0117,3.01172 3.0117235,3.0117235 0 0 1 -3.0118,-3.01172 3.0117235,3.0117235 0 0 1 3.0118,-3.01173 3.0117235,3.0117235 0 0 1 3.0117,3.01173 z" /><path
         id="use112"
         style="display:inline;fill:#7c78a3;fill-opacity:1;stroke-width:3.03914"
         d="m 1472.3342,284.33496 a 3.0117235,3.0117235 0 0 1 -3.0117,3.01172 3.0117235,3.0117235 0 0 1 -3.0117,-3.01172 3.0117235,3.0117235 0 0 1 3.0117,-3.01172 3.0117235,3.0117235 0 0 1 3.0117,3.01172 z" /><path
         id="use113"
         style="display:inline;fill:#7c78a3;fill-opacity:1;stroke-width:3.03914"
         d="m 1472.3342,290.3584 a 3.0117235,3.0117235 0 0 1 -3.0117,3.01172 3.0117235,3.0117235 0 0 1 -3.0117,-3.01172 3.0117235,3.0117235 0 0 1 3.0117,-3.01173 3.0117235,3.0117235 0 0 1 3.0117,3.01173 z" /><path
         id="use118"
         style="display:inline;fill:#7c78a3;fill-opacity:1;stroke-width:3.03914"
         d="m 1478.3577,284.33496 a 3.0117235,3.0117235 0 0 1 -3.0118,3.01172 3.0117235,3.0117235 0 0 1 -3.0117,-3.01172 3.0117235,3.0117235 0 0 1 3.0117,-3.01172 3.0117235,3.0117235 0 0 1 3.0118,3.01172 z" /><path
         id="use119"
         style="display:inline;fill:#7c78a3;fill-opacity:1;stroke-width:3.03914"
         d="m 1478.3577,290.3584 a 3.0117235,3.0117235 0 0 1 -3.0118,3.01172 3.0117235,3.0117235 0 0 1 -3.0117,-3.01172 3.0117235,3.0117235 0 0 1 3.0117,-3.01173 3.0117235,3.0117235 0 0 1 3.0118,3.01173 z" /></g><g
       id="g195"
       style="display:inline"
       transform="translate(0,12)"><path
         id="use108"
         style="display:inline;fill:#6765ab;fill-opacity:1;stroke-width:3.03914"
         d="m 1466.3108,296.38187 a 3.0117235,3.0117235 0 0 1 -3.0117,3.01172 3.0117235,3.0117235 0 0 1 -3.0118,-3.01172 3.0117235,3.0117235 0 0 1 3.0118,-3.01173 3.0117235,3.0117235 0 0 1 3.0117,3.01173 z" /><path
         id="use109"
         style="display:inline;fill:#6765ab;fill-opacity:1;stroke-width:3.03914"
         d="m 1466.3108,302.4053 a 3.0117235,3.0117235 0 0 1 -3.0117,3.01173 3.0117235,3.0117235 0 0 1 -3.0118,-3.01173 3.0117235,3.0117235 0 0 1 3.0118,-3.01172 3.0117235,3.0117235 0 0 1 3.0117,3.01172 z" /><path
         id="use114"
         style="display:inline;fill:#6765ab;fill-opacity:1;stroke-width:3.03914"
         d="m 1472.3342,296.38187 a 3.0117235,3.0117235 0 0 1 -3.0117,3.01172 3.0117235,3.0117235 0 0 1 -3.0117,-3.01172 3.0117235,3.0117235 0 0 1 3.0117,-3.01173 3.0117235,3.0117235 0 0 1 3.0117,3.01173 z" /><path
         id="use115"
         style="display:inline;fill:#6765ab;fill-opacity:1;stroke-width:3.03914"
         d="m 1472.3342,302.4053 a 3.0117235,3.0117235 0 0 1 -3.0117,3.01173 3.0117235,3.0117235 0 0 1 -3.0117,-3.01173 3.0117235,3.0117235 0 0 1 3.0117,-3.01172 3.0117235,3.0117235 0 0 1 3.0117,3.01172 z" /><path
         id="use120"
         style="display:inline;fill:#6765ab;fill-opacity:1;stroke-width:3.03914"
         d="m 1478.3577,296.38187 a 3.0117235,3.0117235 0 0 1 -3.0118,3.01172 3.0117235,3.0117235 0 0 1 -3.0117,-3.01172 3.0117235,3.0117235 0 0 1 3.0117,-3.01173 3.0117235,3.0117235 0 0 1 3.0118,3.01173 z" /><path
         id="use121"
         style="display:inline;fill:#6765ab;fill-opacity:1;stroke-width:3.03914"
         d="m 1478.3577,302.4053 a 3.0117235,3.0117235 0 0 1 -3.0118,3.01173 3.0117235,3.0117235 0 0 1 -3.0117,-3.01173 3.0117235,3.0117235 0 0 1 3.0117,-3.01172 3.0117235,3.0117235 0 0 1 3.0118,3.01172 z" /><path
         id="use124"
         style="display:inline;fill:#6765ab;fill-opacity:1;stroke-width:3.03914"
         d="m 1484.3811,284.33496 a 3.0117235,3.0117235 0 0 1 -3.0117,3.01172 3.0117235,3.0117235 0 0 1 -3.0117,-3.01172 3.0117235,3.0117235 0 0 1 3.0117,-3.01172 3.0117235,3.0117235 0 0 1 3.0117,3.01172 z" /><path
         id="use125"
         style="display:inline;fill:#6765ab;fill-opacity:1;stroke-width:3.03914"
         d="m 1484.3811,290.3584 a 3.0117235,3.0117235 0 0 1 -3.0117,3.01172 3.0117235,3.0117235 0 0 1 -3.0117,-3.01172 3.0117235,3.0117235 0 0 1 3.0117,-3.01173 3.0117235,3.0117235 0 0 1 3.0117,3.01173 z" /><path
         id="use126"
         style="display:inline;fill:#6765ab;fill-opacity:1;stroke-width:3.03914"
         d="m 1484.3811,296.38187 a 3.0117235,3.0117235 0 0 1 -3.0117,3.01172 3.0117235,3.0117235 0 0 1 -3.0117,-3.01172 3.0117235,3.0117235 0 0 1 3.0117,-3.01173 3.0117235,3.0117235 0 0 1 3.0117,3.01173 z" /><path
         id="use127"
         style="display:inline;fill:#6765ab;fill-opacity:1;stroke-width:3.03914"
         d="m 1484.3811,302.4053 a 3.0117235,3.0117235 0 0 1 -3.0117,3.01173 3.0117235,3.0117235 0 0 1 -3.0117,-3.01173 3.0117235,3.0117235 0 0 1 3.0117,-3.01172 3.0117235,3.0117235 0 0 1 3.0117,3.01172 z" /><path
         id="use130"
         style="display:inline;fill:#6765ab;fill-opacity:1;stroke-width:3.03914"
         d="m 1490.4045,284.33496 a 3.0117235,3.0117235 0 0 1 -3.0117,3.01172 3.0117235,3.0117235 0 0 1 -3.0117,-3.01172 3.0117235,3.0117235 0 0 1 3.0117,-3.01172 3.0117235,3.0117235 0 0 1 3.0117,3.01172 z" /><path
         id="use131"
         style="display:inline;fill:#6765ab;fill-opacity:1;stroke-width:3.03914"
         d="m 1490.4045,290.3584 a 3.0117235,3.0117235 0 0 1 -3.0117,3.01172 3.0117235,3.0117235 0 0 1 -3.0117,-3.01172 3.0117235,3.0117235 0 0 1 3.0117,-3.01173 3.0117235,3.0117235 0 0 1 3.0117,3.01173 z" /><path
         id="use132"
         style="display:inline;fill:#6765ab;fill-opacity:1;stroke-width:3.03914"
         d="m 1490.4045,296.38187 a 3.0117235,3.0117235 0 0 1 -3.0117,3.01172 3.0117235,3.0117235 0 0 1 -3.0117,-3.01172 3.0117235,3.0117235 0 0 1 3.0117,-3.01173 3.0117235,3.0117235 0 0 1 3.0117,3.01173 z" /><path
         id="use133"
         style="display:inline;fill:#6765ab;fill-opacity:1;stroke-width:3.03914"
         d="m 1490.4045,302.4053 a 3.0117235,3.0117235 0 0 1 -3.0117,3.01173 3.0117235,3.0117235 0 0 1 -3.0117,-3.01173 3.0117235,3.0117235 0 0 1 3.0117,-3.01172 3.0117235,3.0117235 0 0 1 3.0117,3.01172 z" /><path
         id="use136"
         style="display:inline;fill:#6765ab;fill-opacity:1;stroke-width:3.03914"
         d="m 1496.4281,284.33496 a 3.0117235,3.0117235 0 0 1 -3.0117,3.01172 3.0117235,3.0117235 0 0 1 -3.0117,-3.01172 3.0117235,3.0117235 0 0 1 3.0117,-3.01172 3.0117235,3.0117235 0 0 1 3.0117,3.01172 z" /><path
         id="use137"
         style="display:inline;fill:#6765ab;fill-opacity:1;stroke-width:3.03914"
         d="m 1496.4281,290.3584 a 3.0117235,3.0117235 0 0 1 -3.0117,3.01172 3.0117235,3.0117235 0 0 1 -3.0117,-3.01172 3.0117235,3.0117235 0 0 1 3.0117,-3.01173 3.0117235,3.0117235 0 0 1 3.0117,3.01173 z" /><path
         id="use138"
         style="display:inline;fill:#6765ab;fill-opacity:1;stroke-width:3.03914"
         d="m 1496.4281,296.38187 a 3.0117235,3.0117235 0 0 1 -3.0117,3.01172 3.0117235,3.0117235 0 0 1 -3.0117,-3.01172 3.0117235,3.0117235 0 0 1 3.0117,-3.01173 3.0117235,3.0117235 0 0 1 3.0117,3.01173 z" /><path
         id="use139"
         style="display:inline;fill:#6765ab;fill-opacity:1;stroke-width:3.03914"
         d="m 1496.4281,302.4053 a 3.0117235,3.0117235 0 0 1 -3.0117,3.01173 3.0117235,3.0117235 0 0 1 -3.0117,-3.01173 3.0117235,3.0117235 0 0 1 3.0117,-3.01172 3.0117235,3.0117235 0 0 1 3.0117,3.01172 z" /><path
         id="use142"
         style="display:inline;fill:#6765ab;fill-opacity:1;stroke-width:3.03914"
         d="m 1502.4515,284.33496 a 3.0117235,3.0117235 0 0 1 -3.0117,3.01172 3.0117235,3.0117235 0 0 1 -3.0117,-3.01172 3.0117235,3.0117235 0 0 1 3.0117,-3.01172 3.0117235,3.0117235 0 0 1 3.0117,3.01172 z" /><path
         id="use143"
         style="display:inline;fill:#6765ab;fill-opacity:1;stroke-width:3.03914"
         d="m 1502.4515,290.3584 a 3.0117235,3.0117235 0 0 1 -3.0117,3.01172 3.0117235,3.0117235 0 0 1 -3.0117,-3.01172 3.0117235,3.0117235 0 0 1 3.0117,-3.01173 3.0117235,3.0117235 0 0 1 3.0117,3.01173 z" /><path
         id="use144"
         style="display:inline;fill:#6765ab;fill-opacity:1;stroke-width:3.03914"
         d="m 1502.4515,296.38187 a 3.0117235,3.0117235 0 0 1 -3.0117,3.01172 3.0117235,3.0117235 0 0 1 -3.0117,-3.01172 3.0117235,3.0117235 0 0 1 3.0117,-3.01173 3.0117235,3.0117235 0 0 1 3.0117,3.01173 z" /><path
         id="use145"
         style="display:inline;fill:#6765ab;fill-opacity:1;stroke-width:3.03914"
         d="m 1502.4515,302.4053 a 3.0117235,3.0117235 0 0 1 -3.0117,3.01173 3.0117235,3.0117235 0 0 1 -3.0117,-3.01173 3.0117235,3.0117235 0 0 1 3.0117,-3.01172 3.0117235,3.0117235 0 0 1 3.0117,3.01172 z" /><path
         id="use148"
         style="display:inline;fill:#6765ab;fill-opacity:1;stroke-width:3.03914"
         d="m 1508.475,284.33496 a 3.0117235,3.0117235 0 0 1 -3.0117,3.01172 3.0117235,3.0117235 0 0 1 -3.0118,-3.01172 3.0117235,3.0117235 0 0 1 3.0118,-3.01172 3.0117235,3.0117235 0 0 1 3.0117,3.01172 z" /><path
         id="use149"
         style="display:inline;fill:#6765ab;fill-opacity:1;stroke-width:3.03914"
         d="m 1508.475,290.3584 a 3.0117235,3.0117235 0 0 1 -3.0117,3.01172 3.0117235,3.0117235 0 0 1 -3.0118,-3.01172 3.0117235,3.0117235 0 0 1 3.0118,-3.01173 3.0117235,3.0117235 0 0 1 3.0117,3.01173 z" /><path
         id="use150"
         style="display:inline;fill:#6765ab;fill-opacity:1;stroke-width:3.03914"
         d="m 1508.475,296.38187 a 3.0117235,3.0117235 0 0 1 -3.0117,3.01172 3.0117235,3.0117235 0 0 1 -3.0118,-3.01172 3.0117235,3.0117235 0 0 1 3.0118,-3.01173 3.0117235,3.0117235 0 0 1 3.0117,3.01173 z" /><path
         id="use151"
         style="display:inline;fill:#6765ab;fill-opacity:1;stroke-width:3.03914"
         d="m 1508.475,302.4053 a 3.0117235,3.0117235 0 0 1 -3.0117,3.01173 3.0117235,3.0117235 0 0 1 -3.0118,-3.01173 3.0117235,3.0117235 0 0 1 3.0118,-3.01172 3.0117235,3.0117235 0 0 1 3.0117,3.01172 z" /><path
         id="use154"
         style="display:inline;fill:#6765ab;fill-opacity:1;stroke-width:3.03914"
         d="m 1514.4984,284.33496 a 3.0117235,3.0117235 0 0 1 -3.0117,3.01172 3.0117235,3.0117235 0 0 1 -3.0117,-3.01172 3.0117235,3.0117235 0 0 1 3.0117,-3.01172 3.0117235,3.0117235 0 0 1 3.0117,3.01172 z" /><path
         id="use155"
         style="display:inline;fill:#6765ab;fill-opacity:1;stroke-width:3.03914"
         d="m 1514.4984,290.3584 a 3.0117235,3.0117235 0 0 1 -3.0117,3.01172 3.0117235,3.0117235 0 0 1 -3.0117,-3.01172 3.0117235,3.0117235 0 0 1 3.0117,-3.01173 3.0117235,3.0117235 0 0 1 3.0117,3.01173 z" /><path
         id="use156"
         style="display:inline;fill:#6765ab;fill-opacity:1;stroke-width:3.03914"
         d="m 1514.4984,296.38187 a 3.0117235,3.0117235 0 0 1 -3.0117,3.01172 3.0117235,3.0117235 0 0 1 -3.0117,-3.01172 3.0117235,3.0117235 0 0 1 3.0117,-3.01173 3.0117235,3.0117235 0 0 1 3.0117,3.01173 z" /><path
         id="use157"
         style="display:inline;fill:#6765ab;fill-opacity:1;stroke-width:3.03914"
         d="m 1514.4984,302.4053 a 3.0117235,3.0117235 0 0 1 -3.0117,3.01173 3.0117235,3.0117235 0 0 1 -3.0117,-3.01173 3.0117235,3.0117235 0 0 1 3.0117,-3.01172 3.0117235,3.0117235 0 0 1 3.0117,3.01172 z" /><path
         id="use160"
         style="display:inline;fill:#6765ab;fill-opacity:1;stroke-width:3.03914"
         d="m 1520.5219,284.33496 a 3.0117235,3.0117235 0 0 1 -3.0118,3.01172 3.0117235,3.0117235 0 0 1 -3.0117,-3.01172 3.0117235,3.0117235 0 0 1 3.0117,-3.01172 3.0117235,3.0117235 0 0 1 3.0118,3.01172 z" /><path
         id="use161"
         style="display:inline;fill:#6765ab;fill-opacity:1;stroke-width:3.03914"
         d="m 1520.5219,290.3584 a 3.0117235,3.0117235 0 0 1 -3.0118,3.01172 3.0117235,3.0117235 0 0 1 -3.0117,-3.01172 3.0117235,3.0117235 0 0 1 3.0117,-3.01173 3.0117235,3.0117235 0 0 1 3.0118,3.01173 z" /><path
         id="use162"
         style="display:inline;fill:#6765ab;fill-opacity:1;stroke-width:3.03914"
         d="m 1520.5219,296.38187 a 3.0117235,3.0117235 0 0 1 -3.0118,3.01172 3.0117235,3.0117235 0 0 1 -3.0117,-3.01172 3.0117235,3.0117235 0 0 1 3.0117,-3.01173 3.0117235,3.0117235 0 0 1 3.0118,3.01173 z" /><path
         id="use163"
         style="display:inline;fill:#6765ab;fill-opacity:1;stroke-width:3.03914"
         d="m 1520.5219,302.4053 a 3.0117235,3.0117235 0 0 1 -3.0118,3.01173 3.0117235,3.0117235 0 0 1 -3.0117,-3.01173 3.0117235,3.0117235 0 0 1 3.0117,-3.01172 3.0117235,3.0117235 0 0 1 3.0118,3.01172 z" /><path
         id="use166"
         style="display:inline;fill:#6765ab;fill-opacity:1;stroke-width:3.03914"
         d="m 1526.5453,284.33496 a 3.0117235,3.0117235 0 0 1 -3.0117,3.01172 3.0117235,3.0117235 0 0 1 -3.0118,-3.01172 3.0117235,3.0117235 0 0 1 3.0118,-3.01172 3.0117235,3.0117235 0 0 1 3.0117,3.01172 z" /><path
         id="use167"
         style="display:inline;fill:#6765ab;fill-opacity:1;stroke-width:3.03914"
         d="m 1526.5453,290.3584 a 3.0117235,3.0117235 0 0 1 -3.0117,3.01172 3.0117235,3.0117235 0 0 1 -3.0118,-3.01172 3.0117235,3.0117235 0 0 1 3.0118,-3.01173 3.0117235,3.0117235 0 0 1 3.0117,3.01173 z" /><path
         id="use168"
         style="display:inline;fill:#6765ab;fill-opacity:1;stroke-width:3.03914"
         d="m 1526.5453,296.38187 a 3.0117235,3.0117235 0 0 1 -3.0117,3.01172 3.0117235,3.0117235 0 0 1 -3.0118,-3.01172 3.0117235,3.0117235 0 0 1 3.0118,-3.01173 3.0117235,3.0117235 0 0 1 3.0117,3.01173 z" /><path
         id="use169"
         style="display:inline;fill:#6765ab;fill-opacity:1;stroke-width:3.03914"
         d="m 1526.5453,302.4053 a 3.0117235,3.0117235 0 0 1 -3.0117,3.01173 3.0117235,3.0117235 0 0 1 -3.0118,-3.01173 3.0117235,3.0117235 0 0 1 3.0118,-3.01172 3.0117235,3.0117235 0 0 1 3.0117,3.01172 z" /><path
         id="use172"
         style="display:inline;fill:#6765ab;fill-opacity:1;stroke-width:3.03914"
         d="m 1532.5687,284.33496 a 3.0117235,3.0117235 0 0 1 -3.0117,3.01172 3.0117235,3.0117235 0 0 1 -3.0117,-3.01172 3.0117235,3.0117235 0 0 1 3.0117,-3.01172 3.0117235,3.0117235 0 0 1 3.0117,3.01172 z" /><path
         id="use173"
         style="display:inline;fill:#6765ab;fill-opacity:1;stroke-width:3.03914"
         d="m 1532.5687,290.3584 a 3.0117235,3.0117235 0 0 1 -3.0117,3.01172 3.0117235,3.0117235 0 0 1 -3.0117,-3.01172 3.0117235,3.0117235 0 0 1 3.0117,-3.01173 3.0117235,3.0117235 0 0 1 3.0117,3.01173 z" /><path
         id="use174"
         style="display:inline;fill:#6765ab;fill-opacity:1;stroke-width:3.03914"
         d="m 1532.5687,296.38187 a 3.0117235,3.0117235 0 0 1 -3.0117,3.01172 3.0117235,3.0117235 0 0 1 -3.0117,-3.01172 3.0117235,3.0117235 0 0 1 3.0117,-3.01173 3.0117235,3.0117235 0 0 1 3.0117,3.01173 z" /><path
         id="use175"
         style="display:inline;fill:#6765ab;fill-opacity:1;stroke-width:3.03914"
         d="m 1532.5687,302.4053 a 3.0117235,3.0117235 0 0 1 -3.0117,3.01173 3.0117235,3.0117235 0 0 1 -3.0117,-3.01173 3.0117235,3.0117235 0 0 1 3.0117,-3.01172 3.0117235,3.0117235 0 0 1 3.0117,3.01172 z" /><path
         id="use178"
         style="display:inline;fill:#6765ab;fill-opacity:1;stroke-width:3.03914"
         d="m 1538.5922,284.33496 a 3.0117235,3.0117235 0 0 1 -3.0118,3.01172 3.0117235,3.0117235 0 0 1 -3.0117,-3.01172 3.0117235,3.0117235 0 0 1 3.0117,-3.01172 3.0117235,3.0117235 0 0 1 3.0118,3.01172 z" /><path
         id="use179"
         style="display:inline;fill:#6765ab;fill-opacity:1;stroke-width:3.03914"
         d="m 1538.5922,290.3584 a 3.0117235,3.0117235 0 0 1 -3.0118,3.01172 3.0117235,3.0117235 0 0 1 -3.0117,-3.01172 3.0117235,3.0117235 0 0 1 3.0117,-3.01173 3.0117235,3.0117235 0 0 1 3.0118,3.01173 z" /><path
         id="use180"
         style="display:inline;fill:#6765ab;fill-opacity:1;stroke-width:3.03914"
         d="m 1538.5922,296.38187 a 3.0117235,3.0117235 0 0 1 -3.0118,3.01172 3.0117235,3.0117235 0 0 1 -3.0117,-3.01172 3.0117235,3.0117235 0 0 1 3.0117,-3.01173 3.0117235,3.0117235 0 0 1 3.0118,3.01173 z" /><path
         id="use181"
         style="display:inline;fill:#6765ab;fill-opacity:1;stroke-width:3.03914"
         d="m 1538.5922,302.4053 a 3.0117235,3.0117235 0 0 1 -3.0118,3.01173 3.0117235,3.0117235 0 0 1 -3.0117,-3.01173 3.0117235,3.0117235 0 0 1 3.0117,-3.01172 3.0117235,3.0117235 0 0 1 3.0118,3.01172 z" /><path
         id="use184"
         style="display:inline;fill:#6765ab;fill-opacity:1;stroke-width:3.03914"
         d="m 1544.6156,284.33496 a 3.0117235,3.0117235 0 0 1 -3.0117,3.01172 3.0117235,3.0117235 0 0 1 -3.0117,-3.01172 3.0117235,3.0117235 0 0 1 3.0117,-3.01172 3.0117235,3.0117235 0 0 1 3.0117,3.01172 z" /><path
         id="use185"
         style="display:inline;fill:#6765ab;fill-opacity:1;stroke-width:3.03914"
         d="m 1544.6156,290.3584 a 3.0117235,3.0117235 0 0 1 -3.0117,3.01172 3.0117235,3.0117235 0 0 1 -3.0117,-3.01172 3.0117235,3.0117235 0 0 1 3.0117,-3.01173 3.0117235,3.0117235 0 0 1 3.0117,3.01173 z" /><path
         id="use186"
         style="display:inline;fill:#6765ab;fill-opacity:1;stroke-width:3.03914"
         d="m 1544.6156,296.38187 a 3.0117235,3.0117235 0 0 1 -3.0117,3.01172 3.0117235,3.0117235 0 0 1 -3.0117,-3.01172 3.0117235,3.0117235 0 0 1 3.0117,-3.01173 3.0117235,3.0117235 0 0 1 3.0117,3.01173 z" /><path
         id="use187"
         style="display:inline;fill:#6765ab;fill-opacity:1;stroke-width:3.03914"
         d="m 1544.6156,302.4053 a 3.0117235,3.0117235 0 0 1 -3.0117,3.01173 3.0117235,3.0117235 0 0 1 -3.0117,-3.01173 3.0117235,3.0117235 0 0 1 3.0117,-3.01172 3.0117235,3.0117235 0 0 1 3.0117,3.01172 z" /></g></g></svg>
