<?xml version="1.0" encoding="UTF-8" standalone="no"?>
<!-- Created with Inkscape (http://www.inkscape.org/) -->

<svg
   version="1.1"
   id="svg1"
   width="538.20447"
   height="81.903809"
   viewBox="0 0 538.20447 81.903809"
   xml:space="preserve"
   xmlns="http://www.w3.org/2000/svg"
   xmlns:svg="http://www.w3.org/2000/svg"><defs
     id="defs1" /><g
     id="g1"
     transform="translate(-1353.7595,-472.0481)"><g
       style="display:inline;fill:none"
       id="g2"
       transform="matrix(0.99312916,0,0,1,1353.7595,472.0481)"><path
         id="rect1-5"
         fill="#29284a"
         d="M 526.928,0 H 15 C 6.71573,0 0,6.71573 0,15 v 51.9038 c 0,8.2843 6.71573,15 15,15 h 511.928 c 8.284,0 15,-6.7157 15,-15 V 15 c 0,-8.28427 -6.716,-15 -15,-15 z"
         style="display:inline" /><path
         id="rect2-6"
         fill="#8987be"
         d="M 81.0626,11.9043 H 15.9558 v 58.3025 h 65.1068 z" /><path
         id="rect3-2"
         fill="#7573b3"
         d="M 145.063,11.9043 H 79.9558 v 58.3025 h 65.1072 z" /><path
         id="rect4-9"
         fill="#6b68ad"
         d="m 209.063,11.9043 h -65.107 v 58.3025 h 65.107 z" /><path
         id="rect5-1"
         fill="#6765ab"
         d="m 273.063,11.9043 h -65.107 v 58.3025 h 65.107 z" /><path
         id="rect6-2"
         fill="#5b58a3"
         d="m 337.063,11.9043 h -65.107 v 58.3025 h 65.107 z" /><path
         id="rect7-7"
         fill="#514e91"
         d="m 401.063,11.9043 h -65.107 v 58.3025 h 65.107 z" /><path
         id="rect8-0"
         fill="#3c3a6b"
         d="m 465.063,11.9043 h -65.107 v 58.3025 h 65.107 z" /><path
         id="rect9-9"
         fill="#2a294c"
         d="m 529.063,11.9043 h -65.107 v 58.3025 h 65.107 z"
         stroke="#c0bedc"
         stroke-width="1.63173" /></g></g></svg>
